# xmcd CD database file
#
# Track frame offsets:
#	150
#	784
#	17706
#	37082
#	56566
#	74621
#	96461
#	113439
#	134037
#	155423
#	177232
#	191753
#	209437
#	212424
#	232019
#	252425
#	271842
#	293266
#	323285
#
# Disc length: 4624 seconds
#
# Revision: 0
# Processed by: cddbd v1.5.1PL2 Copyright (c) Steve Scherf et al.
# Submitted via: CDex 1.51
#
DISCID=09120e13
DTITLE=clazziquai project - color your soul
DYEAR=2006
DGENRE=Club
TTITLE0=Beatiful woman
TTITLE1=Salesman
TTITLE2=Fill this night(English version)
TTITLE3=Cry out loud
TTITLE4=I will give you everything
TTITLE5=Come alive
TTITLE6=Dateline
TTITLE7=Be my love(English version-house remix)
TTITLE8=Hold your tears(English version)
TTITLE9=Color your soul
TTITLE10=Speechless
TTITLE11=Sunshine
TTITLE12=Steps ahead
TTITLE13=Will I ever find
TTITLE14=Be my love(Original mix)
TTITLE15=Fill this night
TTITLE16=Hold your tears
TTITLE17=Sweety(cosmo remix)
TTITLE18=CD-Extra Fill this night
EXTD=YEAR: 2006
EXTT0=
EXTT1=
EXTT2=
EXTT3=
EXTT4=
EXTT5=
EXTT6=
EXTT7=
EXTT8=
EXTT9=
EXTT10=
EXTT11=
EXTT12=
EXTT13=
EXTT14=
EXTT15=
EXTT16=
EXTT17=
EXTT18=
PLAYORDER=
